<svg width="35" height="43" viewBox="0 0 35 43" fill="none" xmlns="http://www.w3.org/2000/svg">
<path d="M28 34.4C26.0575 34.4 24.5 36.3135 24.5 38.7C24.5 39.8404 24.8687 40.9342 25.5251 41.7406C26.1815 42.547 27.0717 43 28 43C28.9283 43 29.8185 42.547 30.4749 41.7406C31.1313 40.9342 31.5 39.8404 31.5 38.7C31.5 37.5596 31.1313 36.4658 30.4749 35.6594C29.8185 34.853 28.9283 34.4 28 34.4ZM0 0V4.3H3.5L9.8 20.6185L7.42 25.886C7.1575 26.488 7 27.1975 7 27.95C7 29.0904 7.36875 30.1842 8.02513 30.9906C8.6815 31.797 9.57174 32.25 10.5 32.25H31.5V27.95H11.235C11.119 27.95 11.0077 27.8934 10.9256 27.7926C10.8436 27.6918 10.7975 27.5551 10.7975 27.4125C10.7975 27.305 10.815 27.219 10.85 27.1545L12.425 23.65H25.4625C26.775 23.65 27.93 22.747 28.525 21.4355L34.79 7.525C34.9125 7.181 35 6.8155 35 6.45C35 5.87978 34.8156 5.33292 34.4874 4.92972C34.1592 4.52652 33.7141 4.3 33.25 4.3H7.3675L5.7225 0M10.5 34.4C8.5575 34.4 7 36.3135 7 38.7C7 39.8404 7.36875 40.9342 8.02513 41.7406C8.6815 42.547 9.57174 43 10.5 43C11.4283 43 12.3185 42.547 12.9749 41.7406C13.6313 40.9342 14 39.8404 14 38.7C14 37.5596 13.6313 36.4658 12.9749 35.6594C12.3185 34.853 11.4283 34.4 10.5 34.4Z" fill="black"/>
</svg>
