<svg width="38" height="38" viewBox="0 0 38 38" fill="none" xmlns="http://www.w3.org/2000/svg">
<path fill-rule="evenodd" clip-rule="evenodd" d="M12.1345 2.22917C12.6712 1.09833 13.8269 0.3125 15.1667 0.3125H22.8334C24.1712 0.3125 25.3269 1.09833 25.8655 2.22917C27.1746 2.24067 28.1962 2.30008 29.1085 2.65658C30.1976 3.0826 31.1448 3.80661 31.8417 4.74575C32.5451 5.69067 32.8748 6.90583 33.329 8.57525L33.3999 8.83592L34.5308 12.9893C35.2848 13.3698 35.9457 13.9116 36.4666 14.5763C37.6588 16.1039 37.8696 17.9228 37.6588 20.0082C37.4518 22.0322 36.8154 24.5813 36.0181 27.7726L35.9664 27.9738C35.4623 29.9921 35.0521 31.6308 34.5672 32.9092C34.0574 34.2432 33.4134 35.3357 32.3496 36.1657C31.2878 36.9956 30.0707 37.354 28.6543 37.5265C27.2954 37.6875 25.6068 37.6875 23.5272 37.6875H14.4729C12.3933 37.6875 10.7028 37.6875 9.34578 37.5246C7.92744 37.3559 6.71228 36.9956 5.64853 36.1637C4.58669 35.3357 3.94269 34.2432 3.43286 32.9092C2.94603 31.6308 2.53778 29.9921 2.03369 27.9738L1.98194 27.7726C1.18461 24.5813 0.54636 22.0322 0.341276 20.0101C0.130443 17.9209 0.341276 16.1039 1.53153 14.5763C2.07394 13.8825 2.72369 13.3688 3.46736 12.9893L4.59819 8.83592L4.67103 8.57525C5.12528 6.90583 5.45494 5.69067 6.15836 4.74383C6.8555 3.8054 7.80266 3.08208 8.89153 2.65658C9.80386 2.30008 10.8235 2.23875 12.1345 2.22917ZM12.1364 5.10992C10.8676 5.12333 10.3597 5.17125 9.93803 5.33608C9.35146 5.56547 8.84133 5.95538 8.46603 6.46117C8.12869 6.91542 7.92936 7.54983 7.37353 9.59492L6.69503 12.0789C8.68453 11.8125 11.2529 11.8125 14.4422 11.8125H23.5559C26.7472 11.8125 29.3155 11.8125 31.3031 12.0789L30.6265 9.593C30.0688 7.54792 29.8714 6.9135 29.534 6.45925C29.1587 5.95346 28.6486 5.56355 28.062 5.33417C27.6404 5.16933 27.1305 5.12142 25.8617 5.108C25.5893 5.68043 25.1602 6.16394 24.6242 6.50249C24.0883 6.84104 23.4673 7.02076 22.8334 7.02083H15.1667C14.5327 7.02076 13.9118 6.84104 13.3758 6.50249C12.8398 6.16394 12.4108 5.68043 12.1384 5.108M15.1667 3.1875C15.0396 3.1875 14.9177 3.23798 14.8279 3.32784C14.738 3.41771 14.6875 3.53958 14.6875 3.66667C14.6875 3.79375 14.738 3.91563 14.8279 4.00549C14.9177 4.09535 15.0396 4.14583 15.1667 4.14583H22.8334C22.9604 4.14583 23.0823 4.09535 23.1722 4.00549C23.262 3.91563 23.3125 3.79375 23.3125 3.66667C23.3125 3.53958 23.262 3.41771 23.1722 3.32784C23.0823 3.23798 22.9604 3.1875 22.8334 3.1875H15.1667ZM6.92503 14.9482C5.18086 15.2012 4.33561 15.6612 3.80086 16.3473C3.26419 17.0316 3.02461 17.9612 3.20286 19.7168C3.38494 21.5108 3.96953 23.8568 4.80136 27.1918C5.33419 29.3155 5.70219 30.7875 6.12386 31.8877C6.52636 32.9495 6.92311 33.5111 7.42144 33.9002C7.91786 34.2873 8.55803 34.5346 9.68886 34.6707C10.858 34.8106 12.3722 34.8125 14.5649 34.8125H23.439C25.6298 34.8125 27.1478 34.8106 28.315 34.6707C29.4459 34.5365 30.086 34.2873 30.5824 33.9002C31.0808 33.5111 31.4756 32.9495 31.8819 31.8877C32.2998 30.7875 32.6697 29.3155 33.2006 27.1918C34.0344 23.8568 34.6189 21.5108 34.7991 19.7168C34.9793 17.9612 34.7378 17.0297 34.203 16.3454C33.6683 15.6612 32.823 15.2012 31.0769 14.9482C29.2944 14.6913 26.8756 14.6875 23.439 14.6875H14.5649C11.1283 14.6875 8.70944 14.6913 6.92694 14.9482" fill="black"/>
</svg>
